<svg width="75" height="60" viewBox="0 0 75 60" fill="none" xmlns="http://www.w3.org/2000/svg">
<path d="M19.9517 40.3621L5.96259 28.6663L19.9517 17.0469C20.9455 16.206 21.0984 14.7536 20.2575 13.7598C19.7988 13.2247 19.1109 12.9189 18.4229 12.9189C17.8878 12.9189 17.3527 13.0718 16.894 13.454L0.840878 26.9081C0.305774 27.3667 0 27.9783 0 28.7427C0 29.5072 0.305774 30.1187 0.840878 30.5774L16.9704 44.0314C17.4291 44.4136 17.8878 44.5665 18.4993 44.5665C19.1873 44.5665 19.8753 44.2607 20.3339 43.7256C21.0984 42.6554 20.9455 41.203 19.9517 40.3621Z" fill="#27D07D"/>
<path d="M74.8382 29.5837C74.8382 28.8957 74.5325 28.2077 73.9973 27.749L57.7913 14.295C57.3327 13.9128 56.7976 13.7599 56.2625 13.7599C55.5745 13.7599 54.8865 14.0657 54.4278 14.6008C53.587 15.5945 53.7398 17.047 54.7336 17.8878L68.7228 29.5837L54.8101 41.2795C53.8163 42.1204 53.6634 43.5728 54.5043 44.5666C54.9629 45.1017 55.5745 45.4075 56.3389 45.4075C56.874 45.4075 57.4091 45.1781 57.8678 44.8724L73.9973 31.4183C74.5325 30.9597 74.8382 30.2717 74.8382 29.5837Z" fill="#27D07D"/>
<path d="M45.5604 0.0764437C45.331 2.90469e-07 45.1017 0 44.8724 0C43.8786 0 42.9613 0.611548 42.6555 1.68176L25.6086 56.2623C25.2264 57.4854 25.9144 58.785 27.1375 59.1672C27.3668 59.2436 27.5962 59.2436 27.8255 59.2436C28.8957 59.2436 29.7366 58.5556 30.0424 57.5619L47.0128 2.90485C47.4715 1.7582 46.7835 0.458661 45.5604 0.0764437Z" fill="#27D07D"/>
</svg>
