<svg width="84" height="62" viewBox="0 0 84 62" fill="none" xmlns="http://www.w3.org/2000/svg">
<path d="M77.3123 0.854858C73.456 0.854858 70.3008 4.01008 70.3008 7.86645C70.3008 9.44406 70.8266 10.8464 71.5278 11.8981L57.154 24.3437C54.8752 23.4672 52.2459 23.4672 50.3177 25.0449L35.5934 14.0016C36.1192 12.9499 36.4698 11.7228 36.4698 10.4958C36.4698 6.63942 33.3146 3.48421 29.4582 3.48421C25.6018 3.48421 22.4466 6.63942 22.4466 10.4958C22.4466 12.424 23.1478 14.1769 24.5501 15.4039L9.1246 29.2518C4.74235 28.2001 0.360104 30.8294 0.184814 36.0881C0.184814 39.9445 3.34003 43.0997 7.19641 43.0997C11.0528 43.0997 14.208 39.9445 14.208 36.0881C14.208 34.1599 13.5068 32.407 12.1045 31.18L27.1794 17.3321C29.2829 17.858 31.2111 17.5074 32.7887 16.6309L47.5131 27.8495C46.9872 28.7259 44.7084 36.9646 53.8235 38.0163C57.6799 38.0163 60.8351 34.8611 60.8351 31.0047C60.8351 29.4271 60.3092 28.0248 59.4328 26.7978L73.8065 14.5275C74.683 15.0533 75.7347 15.2286 76.9618 15.2286C80.8181 15.2286 83.9734 12.0734 83.9734 8.21703C84.3239 4.01008 81.1687 0.854858 77.3123 0.854858ZM7.19641 39.7692C5.26822 39.7692 3.69061 38.1916 3.69061 36.2634C3.69061 34.3352 5.26822 32.7576 7.19641 32.7576C9.1246 32.7576 10.7022 34.3352 10.7022 36.2634C10.7022 38.1916 9.29989 39.7692 7.19641 39.7692ZM29.2829 14.1769C27.3547 14.1769 25.7771 12.5993 25.7771 10.6711C25.7771 8.7429 27.3547 7.16529 29.2829 7.16529C31.2111 7.16529 32.7887 8.7429 32.7887 10.6711C32.7887 12.5993 31.3864 14.1769 29.2829 14.1769ZM54.1741 34.3352C52.2459 34.3352 50.6683 32.7576 50.6683 30.8294C50.6683 28.9012 52.2459 27.3236 54.1741 27.3236C56.1023 27.3236 57.6799 28.9012 57.6799 30.8294C57.6799 32.7576 56.1023 34.3352 54.1741 34.3352ZM77.3123 11.5475C75.3842 11.5475 73.8065 9.96993 73.8065 8.04174C73.8065 6.11355 75.3842 4.53594 77.3123 4.53594C79.2405 4.53594 80.8181 6.11355 80.8181 8.04174C80.8181 9.96993 79.2405 11.5475 77.3123 11.5475Z" fill="#474F62"/>
<path d="M7.19638 47.1313C6.14464 47.1313 5.44348 47.8325 5.44348 48.8842V59.4016C5.44348 60.4534 6.14464 61.1545 7.19638 61.1545C8.24812 61.1545 8.94928 60.4534 8.94928 59.4016V48.8842C8.94928 47.8325 8.24812 47.1313 7.19638 47.1313Z" fill="#474F62"/>
<path d="M53.9987 47.1313C52.947 47.1313 52.2458 47.8325 52.2458 48.8842V59.4016C52.2458 60.4534 52.947 61.1545 53.9987 61.1545C55.0505 61.1545 55.7516 60.4534 55.7516 59.4016V48.8842C55.7516 47.8325 54.8752 47.1313 53.9987 47.1313Z" fill="#474F62"/>
<path d="M18.9408 32.407C17.889 32.407 17.1879 33.1081 17.1879 34.1599V59.4016C17.1879 60.4534 17.889 61.1545 18.9408 61.1545C19.9925 61.1545 20.6937 60.4534 20.6937 59.4016V34.1599C20.6937 33.2834 19.8172 32.407 18.9408 32.407Z" fill="#474F62"/>
<path d="M42.2545 32.407C41.2027 32.407 40.5016 33.1081 40.5016 34.1599V59.4016C40.5016 60.4534 41.2027 61.1545 42.2545 61.1545C43.3062 61.1545 44.0074 60.4534 44.0074 59.4016V34.1599C44.0074 33.2834 43.3062 32.407 42.2545 32.407Z" fill="#474F62"/>
<path d="M30.5101 23.8179C29.4584 23.8179 28.7572 24.519 28.7572 25.5708V59.577C28.7572 60.6287 29.4584 61.3299 30.5101 61.3299C31.5618 61.3299 32.263 60.6287 32.263 59.577V25.5708C32.263 24.519 31.5618 23.8179 30.5101 23.8179Z" fill="#474F62"/>
<path d="M65.568 32.407C64.5162 32.407 63.8151 33.1081 63.8151 34.1599V59.4016C63.8151 60.4534 64.5162 61.1545 65.568 61.1545C66.6197 61.1545 67.3209 60.4534 67.3209 59.4016V34.1599C67.3209 33.2834 66.6197 32.407 65.568 32.407Z" fill="#474F62"/>
<path d="M77.3123 23.8179C76.2606 23.8179 75.5594 24.519 75.5594 25.5708V59.577C75.5594 60.6287 76.2606 61.3299 77.3123 61.3299C78.3641 61.3299 79.0652 60.6287 79.0652 59.577V25.5708C79.0652 24.519 78.1888 23.8179 77.3123 23.8179Z" fill="#474F62"/>
</svg>
