<svg width="21" height="21" viewBox="0 0 21 21" fill="none" xmlns="http://www.w3.org/2000/svg">
<path d="M10.2335 4.91949C7.32705 4.91949 4.98141 7.23479 4.98141 10.1036C4.98141 12.9725 7.32705 15.2878 10.2335 15.2878C13.1399 15.2878 15.4856 12.9725 15.4856 10.1036C15.4856 7.23479 13.1399 4.91949 10.2335 4.91949ZM10.2335 13.473C8.35391 13.473 6.82002 11.9589 6.82002 10.1036C6.82002 8.24837 8.35391 6.73432 10.2335 6.73432C12.1131 6.73432 13.647 8.24837 13.647 10.1036C13.647 11.9589 12.1131 13.473 10.2335 13.473ZM15.7007 3.49897C15.0221 3.49897 14.4741 4.03988 14.4741 4.7097C14.4741 5.37952 15.0221 5.92043 15.7007 5.92043C16.3793 5.92043 16.9273 5.38205 16.9273 4.7097C16.9275 4.55065 16.8959 4.39312 16.8343 4.24614C16.7728 4.09916 16.6824 3.96561 16.5685 3.85314C16.4545 3.74068 16.3192 3.6515 16.1703 3.59073C16.0214 3.52995 15.8618 3.49877 15.7007 3.49897ZM20.4713 10.1036C20.4713 8.70839 20.4842 7.32579 20.4048 5.93307C20.3254 4.31539 19.9515 2.87971 18.7531 1.69678C17.5521 0.51133 16.1002 0.144826 14.4613 0.0664698C13.0478 -0.0118863 11.647 0.000751825 10.2361 0.000751825C8.82252 0.000751825 7.4218 -0.0118863 6.01083 0.0664698C4.37195 0.144826 2.91745 0.513858 1.71902 1.69678C0.518032 2.88224 0.146724 4.31539 0.067341 5.93307C-0.0120421 7.32831 0.000761678 8.71092 0.000761678 10.1036C0.000761678 11.4964 -0.0120421 12.8815 0.067341 14.2742C0.146724 15.8919 0.520593 17.3276 1.71902 18.5105C2.92001 19.6959 4.37195 20.0624 6.01083 20.1408C7.42436 20.2192 8.82508 20.2065 10.2361 20.2065C11.6496 20.2065 13.0503 20.2192 14.4613 20.1408C16.1002 20.0624 17.5547 19.6934 18.7531 18.5105C19.9541 17.325 20.3254 15.8919 20.4048 14.2742C20.4867 12.8815 20.4713 11.4989 20.4713 10.1036ZM18.2179 16.0638C18.031 16.5238 17.8056 16.8675 17.4445 17.2214C17.0835 17.5778 16.7378 17.8002 16.2717 17.9847C14.9248 18.513 11.7264 18.3942 10.2335 18.3942C8.74058 18.3942 5.53965 18.513 4.1927 17.9873C3.72664 17.8028 3.37838 17.5803 3.01988 17.2239C2.65881 16.8675 2.43347 16.5263 2.24653 16.0663C1.7139 14.7342 1.83425 11.5772 1.83425 10.1036C1.83425 8.63004 1.7139 5.47052 2.24653 4.14099C2.43347 3.68096 2.65881 3.33721 3.01988 2.98334C3.38094 2.62947 3.72664 2.40452 4.1927 2.22C5.53965 1.69426 8.74058 1.81305 10.2335 1.81305C11.7264 1.81305 14.9273 1.69426 16.2743 2.22C16.7403 2.40452 17.0886 2.62695 17.4471 2.98334C17.8082 3.33973 18.0335 3.68096 18.2205 4.14099C18.7531 5.47052 18.6327 8.63004 18.6327 10.1036C18.6327 11.5772 18.7531 14.7342 18.2179 16.0638Z" fill="url(#paint0_linear_4_332)"/>
<defs>
<linearGradient id="paint0_linear_4_332" x1="10.2362" y1="0" x2="10.2362" y2="20.2073" gradientUnits="userSpaceOnUse">
<stop offset="0.0625" stop-color="white"/>
<stop offset="1" stop-color="white"/>
</linearGradient>
</defs>
</svg>
