<svg width="22" height="21" viewBox="0 0 22 21" fill="none" xmlns="http://www.w3.org/2000/svg">
<path d="M10.9975 8.68357e-07C5.34134 -0.00231808 0.760132 4.64021 0.760132 10.3703C0.760132 14.9015 3.62596 18.7533 7.61708 20.1679C8.15456 20.3047 8.07223 19.9174 8.07223 19.653V17.8559C4.96853 18.2246 4.84274 16.1422 4.6346 15.7943C4.21376 15.0662 3.21884 14.8807 3.51618 14.5328C4.22291 14.1641 4.94337 14.6256 5.77819 15.8755C6.382 16.7822 7.5599 16.6291 8.15685 16.4784C8.28722 15.9335 8.56626 15.4465 8.9505 15.0685C5.73473 14.4841 4.39445 12.4945 4.39445 10.1291C4.39445 8.98127 4.76726 7.92615 5.49916 7.0751C5.03257 5.67214 5.54261 4.47092 5.61123 4.29237C6.94008 4.17178 8.32153 5.25705 8.42902 5.34285C9.18379 5.13646 10.0461 5.02747 11.0112 5.02747C11.981 5.02747 12.8456 5.1411 13.6072 5.3498C13.8656 5.15037 15.1465 4.21816 16.3815 4.33179C16.4479 4.51035 16.9465 5.68373 16.5073 7.06814C17.2484 7.92151 17.6258 8.98591 17.6258 10.1361C17.6258 12.5061 16.2763 14.498 13.0514 15.0731C13.3276 15.3486 13.547 15.677 13.6966 16.0393C13.8462 16.4017 13.9231 16.7906 13.9228 17.1834V19.7922C13.9411 20.0009 13.9228 20.2073 14.2659 20.2073C18.3165 18.8229 21.2326 14.9433 21.2326 10.3726C21.2326 4.64021 16.6491 8.68357e-07 10.9975 8.68357e-07V8.68357e-07Z" fill="white"/>
</svg>
