<svg width="807" height="716" viewBox="0 0 807 716" fill="none" xmlns="http://www.w3.org/2000/svg">
<circle cx="619.001" cy="333" r="38.5" stroke="#CDFFE6"/>
<circle cx="619.001" cy="333" r="126.5" stroke="#CDFFE6"/>
<circle cx="619.001" cy="333" r="236.5" stroke="#CDFFE6"/>
<mask id="path-4-inside-1_4_472" fill="white">
<path d="M491.354 133.312C484.256 137.85 477.404 142.763 470.828 148.03L472.346 149.925C478.854 144.711 485.636 139.849 492.662 135.358L491.354 133.312Z"/>
</mask>
<path d="M491.354 133.312C484.256 137.85 477.404 142.763 470.828 148.03L472.346 149.925C478.854 144.711 485.636 139.849 492.662 135.358L491.354 133.312Z" stroke="#27D07D" stroke-width="2" mask="url(#path-4-inside-1_4_472)"/>
<mask id="path-5-inside-2_4_472" fill="white">
<path d="M389.519 273.781C387.001 283.539 385.108 293.447 383.851 303.446L386.953 303.836C388.193 293.969 390.062 284.191 392.546 274.562L389.519 273.781Z"/>
</mask>
<path d="M389.519 273.781C387.001 283.539 385.108 293.447 383.851 303.446L386.953 303.836C388.193 293.969 390.062 284.191 392.546 274.562L389.519 273.781Z" stroke="#27D07D" stroke-width="2" mask="url(#path-5-inside-2_4_472)"/>
<circle cx="619.001" cy="333" r="331.5" stroke="#CDFFE6"/>
<mask id="path-7-inside-3_4_472" fill="white">
<path d="M289.049 288.051C291.876 267.294 296.656 246.851 303.325 226.992L317.663 231.807C311.297 250.764 306.735 270.279 304.035 290.093L289.049 288.051Z"/>
</mask>
<path d="M289.049 288.051C291.876 267.294 296.656 246.851 303.325 226.992L317.663 231.807C311.297 250.764 306.735 270.279 304.035 290.093L289.049 288.051Z" stroke="#27D07D" stroke-width="4" mask="url(#path-7-inside-3_4_472)"/>
<path d="M697.172 687.653C696.998 687.485 696.776 687.273 696.51 687.016C695.769 686.302 694.682 685.248 693.295 683.89C690.522 681.175 686.551 677.243 681.764 672.381C672.188 662.655 659.346 649.205 646.279 634.308C633.212 619.409 619.926 603.071 609.458 587.568C598.979 572.048 591.367 557.428 589.577 545.951L589.577 545.951L589.575 545.94C587.584 534.856 587.828 523.486 590.294 512.499C592.759 501.511 597.396 491.127 603.932 481.956C610.467 472.786 618.77 465.014 628.352 459.098C637.934 453.182 648.601 449.241 659.728 447.507C670.855 445.772 682.216 446.279 693.144 448.998C704.072 451.716 714.346 456.592 723.363 463.338C732.38 470.083 739.957 478.564 745.65 488.28C751.343 497.996 755.037 508.752 756.514 519.915L756.532 520.053L756.544 520.068C758.291 531.537 755.493 547.725 750.255 565.629C745.003 583.581 737.321 603.186 729.409 621.354C721.498 639.52 713.36 656.239 707.2 668.417C704.12 674.506 701.534 679.459 699.719 682.889C698.811 684.605 698.096 685.939 697.609 686.845C697.433 687.17 697.287 687.44 697.172 687.653Z" fill="#27D07D" stroke="#CDFFE6"/>
<path d="M660.385 449.286C660.385 449.286 717.405 560.806 697.757 688.769" stroke="#CDFFE6" stroke-miterlimit="10"/>
<path d="M762.33 604.157L762.334 604.16L763.18 604.783C763.181 604.783 763.181 604.784 763.181 604.784C770.336 610.14 775.277 617.934 777.068 626.69C778.859 635.447 777.375 644.556 772.897 652.291L772.897 652.292C761.368 672.297 742.651 681.319 726.772 685.338C718.834 687.347 711.617 688.103 706.385 688.356C703.769 688.482 701.651 688.483 700.189 688.452C699.458 688.437 698.89 688.414 698.507 688.394C698.475 688.393 698.444 688.391 698.414 688.39C699.998 657.184 704.8 636.328 711.091 622.594C717.411 608.797 725.22 602.214 732.765 599.509C740.324 596.8 747.708 597.951 753.229 599.8C755.986 600.723 758.269 601.817 759.861 602.68C760.657 603.111 761.279 603.484 761.701 603.748C761.912 603.88 762.073 603.985 762.18 604.056C762.234 604.092 762.274 604.119 762.301 604.137L762.33 604.157Z" fill="#27D07D" stroke="#CDFFE6"/>
<path d="M763.624 604.087C763.624 604.087 748.241 668.146 697.89 688.858" stroke="#CDFFE6" stroke-miterlimit="10"/>
<path d="M1.48047 760.233V631.648H84.46V760.233H1.48047Z" fill="white" stroke="#87E0B5"/>
<path d="M145.331 761.053V517.28H228.311V761.053H145.331Z" fill="white" stroke="#87E0B5"/>
<path d="M289.441 760.211V586.044H372.42V760.211H289.441Z" fill="white" stroke="#87E0B5"/>
<path d="M433.421 760.233V478.064H516.4V760.233H433.421Z" fill="white" stroke="#87E0B5"/>
<path d="M660.881 376.771H576.901V760.711H660.881V376.771Z" fill="white"/>
<path d="M41.7722 551.961L188.148 419.98L332.128 544.752L473.713 393.584L617.693 333.584" stroke="white" stroke-width="2" stroke-miterlimit="10"/>
<path d="M58.0636 551.96C58.0636 560.958 50.7696 568.252 41.772 568.252C32.7745 568.252 25.4805 560.958 25.4805 551.96C25.4805 542.963 32.7745 535.669 41.772 535.669C50.7696 535.669 58.0636 542.963 58.0636 551.96Z" fill="white" stroke="#87E0B5"/>
<path d="M346.024 542.356C346.024 551.354 338.73 558.648 329.732 558.648C320.735 558.648 313.441 551.354 313.441 542.356C313.441 533.358 320.735 526.064 329.732 526.064C338.73 526.064 346.024 533.358 346.024 542.356Z" fill="white" stroke="#87E0B5"/>
<path d="M492.4 393.584C492.4 402.582 485.106 409.876 476.109 409.876C467.111 409.876 459.817 402.582 459.817 393.584C459.817 384.587 467.111 377.293 476.109 377.293C485.106 377.293 492.4 384.587 492.4 393.584Z" fill="white" stroke="#87E0B5"/>
<path d="M204.44 417.563C204.44 426.56 197.146 433.854 188.148 433.854C179.151 433.854 171.857 426.56 171.857 417.563C171.857 408.565 179.151 401.271 188.148 401.271C197.146 401.271 204.44 408.565 204.44 417.563Z" fill="white" stroke="#87E0B5"/>
<path d="M635.474 332.85C635.474 341.847 628.18 349.141 619.182 349.141C610.185 349.141 602.891 341.847 602.891 332.85C602.891 323.852 610.185 316.558 619.182 316.558C628.18 316.558 635.474 323.852 635.474 332.85Z" fill="white" stroke="#87E0B5"/>
<path d="M515.111 82.1426L515.12 82.5248L515.492 82.6157C518.347 83.3144 520.885 84.951 522.699 87.2635C524.438 89.4794 525.416 92.193 525.495 95.0021L525.495 95.3702C525.496 98.847 524.118 102.182 521.663 104.644C519.208 107.106 515.876 108.492 512.4 108.5H461.134C461.134 108.5 461.134 108.5 461.134 108.5C459.212 108.499 457.308 108.12 455.532 107.384C453.757 106.647 452.143 105.569 450.784 104.209C449.425 102.849 448.348 101.234 447.612 99.458C446.877 97.6816 446.499 95.7777 446.5 93.8552V93.8549C446.5 91.7115 446.97 89.5942 447.878 87.6526C448.786 85.7109 450.109 83.9923 451.753 82.6181C453.398 81.2439 455.325 80.2476 457.397 79.6997C459.469 79.1517 461.636 79.0655 463.745 79.447L464.425 79.57L464.329 78.8859C464.026 76.7159 464.448 74.5067 465.529 72.6009C466.61 70.6951 468.289 69.1995 470.307 68.346C472.325 67.4925 474.568 67.3289 476.688 67.8806C478.808 68.4323 480.687 69.6684 482.033 71.3972L482.426 71.9015L482.821 71.399C484.512 69.2481 486.669 67.5094 489.13 66.3143C491.591 65.1191 494.291 64.4988 497.027 64.5C501.746 64.5023 506.278 66.348 509.656 69.6437C513.034 72.9395 514.992 77.4244 515.111 82.1426Z" stroke="#CDFFE6"/>
<path d="M281.111 251.143L281.12 251.525L281.492 251.616C284.347 252.314 286.885 253.951 288.699 256.264C290.438 258.479 291.416 261.193 291.495 264.002L291.495 264.37C291.496 267.847 290.118 271.182 287.663 273.644C285.208 276.106 281.876 277.492 278.4 277.5H227.134C227.134 277.5 227.134 277.5 227.134 277.5C225.212 277.499 223.308 277.12 221.532 276.384C219.757 275.647 218.143 274.569 216.784 273.209C215.425 271.849 214.348 270.234 213.612 268.458C212.877 266.682 212.499 264.778 212.5 262.855V262.855C212.5 260.712 212.97 258.594 213.878 256.653C214.786 254.711 216.109 252.992 217.753 251.618C219.398 250.244 221.325 249.248 223.397 248.7C225.469 248.152 227.636 248.065 229.745 248.447L230.425 248.57L230.329 247.886C230.026 245.716 230.448 243.507 231.529 241.601C232.61 239.695 234.289 238.199 236.307 237.346C238.325 236.492 240.568 236.329 242.688 236.881C244.808 237.432 246.687 238.668 248.033 240.397L248.426 240.901L248.821 240.399C250.512 238.248 252.669 236.509 255.13 235.314C257.591 234.119 260.291 233.499 263.027 233.5C267.746 233.502 272.278 235.348 275.656 238.644C279.034 241.939 280.992 246.424 281.111 251.143Z" stroke="#CDFFE6"/>
<path d="M836.111 204.143L836.12 204.525L836.492 204.616C839.347 205.314 841.885 206.951 843.699 209.264C845.438 211.479 846.416 214.193 846.495 217.002L846.495 217.37C846.496 220.847 845.118 224.182 842.663 226.644C840.208 229.106 836.876 230.492 833.4 230.5H782.134C782.134 230.5 782.134 230.5 782.134 230.5C780.212 230.499 778.308 230.12 776.532 229.384C774.757 228.647 773.143 227.569 771.784 226.209C770.425 224.849 769.348 223.234 768.612 221.458C767.877 219.682 767.499 217.778 767.5 215.855V215.855C767.5 213.712 767.97 211.594 768.878 209.653C769.786 207.711 771.109 205.992 772.753 204.618C774.398 203.244 776.325 202.248 778.397 201.7C780.469 201.152 782.636 201.065 784.745 201.447L785.425 201.57L785.329 200.886C785.026 198.716 785.448 196.507 786.529 194.601C787.61 192.695 789.289 191.199 791.307 190.346C793.325 189.492 795.568 189.329 797.688 189.881C799.808 190.432 801.687 191.668 803.033 193.397L803.426 193.901L803.821 193.399C805.512 191.248 807.669 189.509 810.13 188.314C812.591 187.119 815.291 186.499 818.027 186.5C822.746 186.502 827.278 188.348 830.656 191.644C834.034 194.939 835.992 199.424 836.111 204.143Z" stroke="#CDFFE6"/>
<g filter="url(#filter0_d_4_472)">
<rect x="77.3359" y="50.5945" width="86" height="71.6667" rx="6" transform="rotate(-15 77.3359 50.5945)" fill="#3EDB8E"/>
</g>
<path d="M173.762 98.9519L101.076 118.428C99.6995 118.797 98.2324 118.604 96.9978 117.891C95.7633 117.178 94.8624 116.004 94.4935 114.627L78.7271 55.7863C78.3581 54.4094 78.5513 52.9422 79.2641 51.7077C79.9768 50.4731 81.1508 49.5723 82.5278 49.2033L155.214 29.7272C156.591 29.3582 158.058 29.5514 159.292 30.2642C160.527 30.9769 161.428 32.1509 161.797 33.5279L177.563 92.3689C177.932 93.7458 177.739 95.213 177.026 96.4475C176.313 97.6821 175.139 98.5829 173.762 98.9519ZM83.4552 52.6646C82.9962 52.7875 82.6049 53.0878 82.3673 53.4993C82.1297 53.9109 82.0653 54.3999 82.1883 54.8589L97.9547 113.7C98.0777 114.159 98.378 114.55 98.7895 114.788C99.201 115.025 99.6901 115.09 100.149 114.967L172.835 95.4906C173.294 95.3677 173.685 95.0674 173.923 94.6559C174.16 94.2443 174.225 93.7553 174.102 93.2963L158.335 34.4553C158.212 33.9963 157.912 33.605 157.501 33.3674C157.089 33.1298 156.6 33.0654 156.141 33.1884L83.4552 52.6646Z" fill="white"/>
<path d="M167.519 89.4956L94.8329 108.972C94.3739 109.095 93.8849 109.03 93.4734 108.793C93.0618 108.555 92.7616 108.164 92.6386 107.705C92.5156 107.246 92.58 106.757 92.8176 106.345C93.0552 105.934 93.4465 105.633 93.9055 105.511L166.591 86.0344C167.05 85.9114 167.539 85.9758 167.951 86.2134C168.362 86.451 168.663 86.8423 168.786 87.3013C168.909 87.7603 168.844 88.2493 168.607 88.6608C168.369 89.0723 167.978 89.3726 167.519 89.4956Z" fill="white"/>
<path d="M121.935 92.4355L115.012 94.2903C114.553 94.4133 114.064 94.3489 113.653 94.1113C113.241 93.8738 112.941 93.4824 112.818 93.0234L109.108 79.1785C108.985 78.7195 109.05 78.2305 109.287 77.8189C109.525 77.4074 109.916 77.1071 110.375 76.9842L117.298 75.1293C117.757 75.0063 118.246 75.0707 118.657 75.3083C119.069 75.5459 119.369 75.9372 119.492 76.3962L123.202 90.2411C123.325 90.7001 123.26 91.1892 123.023 91.6007C122.785 92.0122 122.394 92.3125 121.935 92.4355ZM115.816 90.3654L119.277 89.4379L116.494 79.0542L113.033 79.9817L115.816 90.3654Z" fill="white"/>
<path d="M135.78 88.7257L128.857 90.5806C128.398 90.7036 127.909 90.6392 127.498 90.4016C127.086 90.164 126.786 89.7727 126.663 89.3137L122.026 72.0075C121.903 71.5485 121.967 71.0595 122.205 70.648C122.442 70.2364 122.834 69.9362 123.293 69.8132L130.215 67.9583C130.674 67.8353 131.163 67.8997 131.575 68.1373C131.986 68.3749 132.287 68.7662 132.409 69.2252L137.047 86.5314C137.17 86.9904 137.105 87.4794 136.868 87.8909C136.63 88.3025 136.239 88.6027 135.78 88.7257ZM129.66 86.6556L133.122 85.7282L129.412 71.8833L125.951 72.8107L129.66 86.6556Z" fill="white"/>
<path d="M149.625 85.016L142.702 86.8708C142.243 86.9938 141.754 86.9295 141.343 86.6919C140.931 86.4543 140.631 86.0629 140.508 85.6039L134.943 64.8365C134.82 64.3776 134.885 63.8885 135.122 63.477C135.36 63.0655 135.751 62.7652 136.21 62.6422L143.133 60.7873C143.592 60.6644 144.081 60.7287 144.492 60.9663C144.904 61.2039 145.204 61.5953 145.327 62.0542L150.892 82.8216C151.015 83.2806 150.95 83.7697 150.713 84.1812C150.475 84.5927 150.084 84.893 149.625 85.016ZM143.505 82.9459L146.967 82.0185L142.33 64.7123L138.868 65.6397L143.505 82.9459Z" fill="white"/>
<path d="M108.867 75.2241C109.205 75.3374 109.568 75.3476 109.911 75.2535C110.365 75.13 110.752 74.8331 110.988 74.427L115.689 66.2861L127.093 63.2302C127.547 63.1066 127.934 62.8098 128.17 62.4037L132.87 54.2627L136.625 53.2566L134.991 56.0871C134.812 56.3946 134.728 56.7484 134.751 57.1036C134.774 57.4587 134.902 57.7991 135.119 58.0812C135.336 58.3634 135.632 58.5745 135.969 58.6878C136.306 58.8011 136.67 58.8113 137.013 58.7172C137.468 58.5884 137.853 58.2851 138.085 57.8734L141.853 51.3479C141.985 51.1333 142.07 50.8924 142.103 50.6404C142.148 50.2926 142.09 49.9393 141.936 49.6241C141.782 49.309 141.539 49.0459 141.237 48.8676L134.654 45.0669C134.247 44.8721 133.781 44.838 133.35 44.9716C132.919 45.1051 132.555 45.3964 132.329 45.7872C132.103 46.178 132.034 46.6395 132.133 47.0796C132.233 47.5196 132.496 47.9058 132.868 48.1609L135.716 49.7906L131.233 50.9916C130.78 51.1152 130.393 51.412 130.157 51.8181L125.456 59.9591L114.052 63.015C113.823 63.0747 113.609 63.1788 113.422 63.3214C113.234 63.4641 113.076 63.6423 112.957 63.8461L107.89 72.6234C107.71 72.9309 107.627 73.2847 107.65 73.6399C107.672 73.995 107.8 74.3354 108.017 74.6175C108.234 74.8997 108.53 75.1109 108.867 75.2241Z" fill="white"/>
<defs>
<filter id="filter0_d_4_472" x="33.6829" y="14.683" width="158.924" height="148.789" filterUnits="userSpaceOnUse" color-interpolation-filters="sRGB">
<feFlood flood-opacity="0" result="BackgroundImageFix"/>
<feColorMatrix in="SourceAlpha" type="matrix" values="0 0 0 0 0 0 0 0 0 0 0 0 0 0 0 0 0 0 127 0" result="hardAlpha"/>
<feOffset dx="-15" dy="15"/>
<feGaussianBlur stdDeviation="15"/>
<feColorMatrix type="matrix" values="0 0 0 0 0.149983 0 0 0 0 0.291684 0 0 0 0 0.164153 0 0 0 0.13 0"/>
<feBlend mode="normal" in2="BackgroundImageFix" result="effect1_dropShadow_4_472"/>
<feBlend mode="normal" in="SourceGraphic" in2="effect1_dropShadow_4_472" result="shape"/>
</filter>
</defs>
</svg>
