<svg width="23" height="20" viewBox="0 0 23 20" fill="none" xmlns="http://www.w3.org/2000/svg">
<path d="M22.4174 2.51256C21.6175 2.88248 20.747 3.14871 19.8504 3.2524C20.7813 2.65951 21.4784 1.72284 21.811 0.618126C20.9374 1.17522 19.9804 1.56586 18.9825 1.77272C18.5654 1.2947 18.0609 0.913892 17.5006 0.654017C16.9402 0.394143 16.3359 0.260773 15.7253 0.262219C13.255 0.262219 11.2682 2.40887 11.2682 5.04314C11.2682 5.41306 11.3101 5.78298 11.378 6.13889C7.67907 5.93151 4.38006 4.03707 2.18682 1.13657C1.78719 1.86833 1.57777 2.70152 1.58034 3.54945C1.58034 5.20848 2.36719 6.67135 3.56707 7.53169C2.85996 7.50183 2.16942 7.29348 1.55159 6.92356V6.98241C1.55159 9.30562 3.08346 11.2309 5.12508 11.6737C4.74174 11.7804 4.3474 11.835 3.95134 11.8362C3.66118 11.8362 3.3867 11.8054 3.1096 11.7633C3.67425 13.6578 5.31852 15.0338 7.27649 15.0786C5.74462 16.3649 3.82587 17.1216 1.74242 17.1216C1.3686 17.1216 1.02354 17.1075 0.665405 17.0627C2.64167 18.4219 4.98653 19.2066 7.51176 19.2066C15.7096 19.2066 20.1954 11.9259 20.1954 5.60643C20.1954 5.39905 20.1954 5.19167 20.1824 4.98429C21.0502 4.3033 21.811 3.45978 22.4174 2.51256Z" fill="white"/>
</svg>
